<?xml version="1.0" encoding="utf-8"?>
<!-- Generator: Adobe Illustrator 16.0.0, SVG Export Plug-In . SVG Version: 6.00 Build 0)  -->
<!DOCTYPE svg PUBLIC "-//W3C//DTD SVG 1.0//EN" "http://www.w3.org/TR/2001/REC-SVG-20010904/DTD/svg10.dtd">
<svg version="1.0" id="Layer_1" xmlns="http://www.w3.org/2000/svg" xmlns:xlink="http://www.w3.org/1999/xlink" x="0px" y="0px"
	  viewBox="0 0 60 60" enable-background="new 0 0 60 60" xml:space="preserve">
<path fill="none" d="M94.175,44.445"/>
<path fill="#C4D10E" d="M35.926,9.14c0.545-0.065,6.404-2.428,7.35-1.887c0.944,0.538,1.867,6.795,2.141,7.357
	c0.108,0.219,0.138,0.242,0.411,0.3c0.533,0.106,6.64,1.323,7.178,2.264c0.538,0.938-2.125,6.495-2.041,7.114
	c0.031,0.189,0.083,0.109,0.112,0.274c0.089,0.534,5.261,4.588,5.261,5.669c0,1.087-5.199,4.955-5.479,5.51
	c-0.165,0.329,0.081,0.466,0.106,0.632c0.093,0.534,1.957,6.624,1.393,7.551c-0.563,0.927-6.737,0.983-6.999,1.551
	c0,0-0.023,0.139-0.188,0.304c-0.382,0.386-1.441,6.719-2.382,7.252c-0.945,0.538-6.244-1.845-6.83-2.058
	c-0.301-0.11-0.466,0.025-0.549,0.108c-0.387,0.383-4.557,5.259-5.638,5.259c-1.089,0-4.758-4.479-5.242-4.874
	c-0.136-0.106-0.383-0.052-0.383-0.052c-0.903,0.108-6.478,1.874-7.421,1.338c-0.943-0.54-1.491-6.734-2.068-6.974
	c0,0-0.166-0.165-0.272-0.218c-0.489-0.246-6.854-1.79-7.39-2.733c-0.539-0.942,2.296-6.501,1.92-7.003v-0.22
	c0-0.541-5.251-4.754-5.251-5.835c0-1.089,5.194-5.054,5.279-5.676c0.026-0.191,0.028-0.295,0.028-0.295
	c0.054-0.769-1.894-6.797-1.331-7.724c0.567-0.927,6.646-0.844,7.042-1.329c0.111-0.136,0.135,0.025,0.272-0.326
	c0.199-0.51,1.317-6.912,2.26-7.445c0.943-0.537,6.035,1.911,6.629,2.109c0.163,0.056,0.22,0.083,0.381-0.109
	c0.353-0.413,4.925-5.314,6.007-5.314c1.088,0,4.604,5.125,5.178,5.37C35.6,9.11,35.708,9.167,35.926,9.14"/>
<path fill-rule="evenodd" clip-rule="evenodd" fill="#FFFFFF" d="M25.076,36.057c2.271-4.867,5.368-10.006,8.73-14.304
	c0.988-1.255,2.257-3.244,3.765-3.913c1.229-0.542,5.423-1.18,5.873,0.151c0.473,1.387-2.021,3.375-1.958,3.312
	c-4.433,4.4-7.663,9.866-10.536,15.805c-0.846,1.749-2.447,6.413-3.764,7.075c-0.962,0.488-3.916,0.394-4.518,0.154
	c-1.274-0.514-2.519-3.1-3.314-4.063c-0.873-1.076-2.873-2.801-2.857-4.37c0.012-1.684,2.138-3.16,3.763-3.16
	C22.548,32.743,23.672,34.784,25.076,36.057"/>
</svg>
