<?xml version="1.0" encoding="utf-8"?>
<!-- Generator: Adobe Illustrator 16.0.0, SVG Export Plug-In . SVG Version: 6.00 Build 0)  -->
<!DOCTYPE svg PUBLIC "-//W3C//DTD SVG 1.1//EN" "http://www.w3.org/Graphics/SVG/1.1/DTD/svg11.dtd">
<svg version="1.1" id="Layer_1" xmlns="http://www.w3.org/2000/svg" xmlns:xlink="http://www.w3.org/1999/xlink" x="0px" y="0px"
	  viewBox="0 0 60 60" enable-background="new 0 0 60 60" xml:space="preserve">
<path fill="#FFFFFF" d="M49.708,29.296c-0.369-1.119-1.171-2.098-1.823-3.22c0.138-0.578,0.606-0.813,1.307-0.71
	c0.266,0.037,0.537,0.005,0.806,0.005c1.569-0.005,1.76-0.304,1.146-1.772c-0.216-0.523-0.536-0.751-1.128-0.639
	c-0.69,0.128-1.396,0.192-2.096,0.251c-0.462,0.041-0.638,0.248-0.609,0.707c0.037,0.439,0.01,0.879,0.01,1.545
	c-0.144-0.388-0.231-0.58-0.285-0.776c-0.742-2.642-1.595-5.262-2.18-7.936c-0.349-1.594-1.18-2.252-2.677-2.627
	c-6.159-1.541-12.368-2.087-18.648-1.097c-2.434,0.385-4.824,1.063-7.22,1.657c-0.285,0.071-0.625,0.412-0.708,0.696
	c-0.735,2.49-1.414,4.994-2.119,7.493c-0.229,0.82-0.474,1.634-0.712,2.454c-0.114-0.424-0.079-0.8-0.037-1.176
	c0.069-0.637-0.174-0.937-0.849-0.956c-0.678-0.024-1.353-0.224-2.027-0.22c-0.311,0.004-0.674,0.255-0.911,0.5
	c-0.183,0.187-0.211,0.531-0.297,0.807c-0.225,0.727-0.016,1.043,0.76,1.083c0.608,0.032,1.216,0.039,1.821-0.007
	c0.469-0.032,0.706,0.223,0.784,0.583c0.047,0.224-0.05,0.539-0.198,0.726c-0.959,1.253-1.728,2.584-2.006,4.159
	c-0.055,0.305-0.104,0.635-0.245,0.903c-1.284,2.502-1.667,5.175-1.443,7.929c0.152,1.875,0.637,3.634,2.479,4.683
	c0.528,0.298,0.936,0.747,0.869,1.53c-0.097,1.132-0.029,2.286-0.024,3.427c0.008,1.176,0.611,1.779,1.807,1.796
	c0.873,0.008,1.751,0.013,2.625,0c1.203-0.017,1.818-0.653,1.826-1.867c0.003-0.946,0-1.891,0-2.855h24.607
	c0.013,0.105,0.033,0.202,0.033,0.293c0.008,0.945-0.035,1.901,0.038,2.843c0.086,1.072,0.671,1.57,1.718,1.587
	c0.924,0.013,1.848,0.013,2.773-0.005c1.057-0.015,1.666-0.637,1.676-1.683c0.016-1.313-0.008-2.627,0.027-3.939
	c0.009-0.235,0.172-0.519,0.352-0.687c0.457-0.424,1.003-0.748,1.435-1.188c1.236-1.272,1.376-2.94,1.532-4.585
	C52.203,35.541,50.752,32.455,49.708,29.296 M16.186,18.899c0.21-0.75,0.474-1.486,0.629-2.245c0.104-0.504,0.355-0.732,0.829-0.859
	c3.365-0.908,6.779-1.471,10.264-1.664c4.707-0.262,9.306,0.368,13.854,1.487c0.886,0.216,1.374,0.598,1.603,1.555
	c0.573,2.379,1.295,4.723,1.974,7.146H14.665C15.18,22.489,15.68,20.692,16.186,18.899 M37.721,34.706
	c-0.019,0.84-0.581,1.336-1.569,1.339c-2.063,0.007-4.128,0-6.197,0c-2.021,0-4.565,0.002-6.583,0
	c-0.994-0.005-1.652-0.563-1.63-1.374c0.021-0.817,0.611-1.33,1.59-1.334c4.11-0.004,8.749-0.01,12.86,0.004
	C37.161,33.342,37.736,33.878,37.721,34.706 M14.049,34.246c-1.48-0.044-2.533-1.12-2.491-2.558
	c0.039-1.413,1.159-2.484,2.542-2.436c1.389,0.056,2.471,1.189,2.442,2.566C16.514,33.174,15.372,34.282,14.049,34.246
	 M41.079,45.257c-4.45,0.012-8.902,0.002-13.354,0.002c-2.579,0-5.158-0.026-7.734,0.01c-1.888,0.023-3.447-1.725-3.104-3.497
	h27.149C44.453,43.495,42.977,45.247,41.079,45.257 M45.967,34.249c-1.31,0.029-2.454-1.092-2.5-2.435
	c-0.037-1.354,1.062-2.51,2.445-2.562c1.403-0.049,2.542,1.06,2.57,2.492C48.506,33.086,47.368,34.222,45.967,34.249"/>
</svg>
