<?xml version="1.0" encoding="utf-8"?>
<!-- Generator: Adobe Illustrator 19.0.1, SVG Export Plug-In . SVG Version: 6.00 Build 0)  -->
<svg version="1.1" id="bg" xmlns="http://www.w3.org/2000/svg" xmlns:xlink="http://www.w3.org/1999/xlink" x="0px" y="0px"
	 viewBox="-449 251 60 60" style="enable-background:new -449 251 60 60;" xml:space="preserve">
<style type="text/css">
	.st0{fill:#C4D10E;}
</style>
<g>
	<g>
		<polygon class="st0" points="-395,284.4 -395,286.1 -395,288 -393.1,282.2 -395,281.7 -395,282.8 		"/>
		<polygon class="st0" points="-440.4,267 -441.5,270.2 -430.4,270.2 		"/>
		<path class="st0" d="M-391.1,269.6l-43.7-14.1c-1-0.3-2.1,0.1-2.4,1l-1.8,5.5l25,8.2h13.7c2.9,0,5.3,2.2,5.3,5v1.1l3.3,1.1
			l1.8-5.5C-389.6,271-390.2,269.9-391.1,269.6z"/>
	</g>
	<g>
		<path class="st0" d="M-447.8,303.7c0,1,0.8,1.7,1.9,1.7h45.8c1.1,0,1.9-0.7,1.9-1.7v-17.6h-49.6V303.7z"/>
		<path class="st0" d="M-398.2,275.1c0-1-0.8-1.7-1.9-1.7h-45.8c-1.1,0-1.9,0.7-1.9,1.7v5.8h49.6
			C-398.2,281-398.2,275.1-398.2,275.1z M-433.4,278.5h-11.2c-0.6,0-1.1-0.6-1.1-1.1s0.4-1.1,1.1-1.1h11.2c0.6,0,1.1,0.6,1.1,1.1
			S-432.8,278.5-433.4,278.5z"/>
	</g>
</g>
</svg>
