<?xml version="1.0" encoding="utf-8"?>
<!-- Generator: Adobe Illustrator 16.0.0, SVG Export Plug-In . SVG Version: 6.00 Build 0)  -->
<!DOCTYPE svg PUBLIC "-//W3C//DTD SVG 1.1//EN" "http://www.w3.org/Graphics/SVG/1.1/DTD/svg11.dtd">
<svg version="1.1" id="Layer_1" xmlns="http://www.w3.org/2000/svg" xmlns:xlink="http://www.w3.org/1999/xlink" x="0px" y="0px"
	  viewBox="0 0 60 60" enable-background="new 0 0 60 60" xml:space="preserve">
<g>
	<path fill="#FFFFFF" d="M2.221,45.788c0,1.015,0.971,1.848,2.158,1.848h51.238c1.188,0,2.162-0.833,2.162-1.848v-19.33H2.221
		V45.788z"/>
	<path fill="#FFFFFF" d="M57.779,14.372c0-1.018-0.975-1.848-2.162-1.848H4.379c-1.188,0-2.158,0.83-2.158,1.848v6.476h55.559
		V14.372z M18.43,18.011H5.938c-0.664,0-1.202-0.538-1.202-1.2s0.538-1.2,1.202-1.2H18.43c0.664,0,1.202,0.538,1.202,1.2
		S19.094,18.011,18.43,18.011z"/>
</g>
</svg>
