<?xml version="1.0" encoding="utf-8"?>
<!-- Generator: Adobe Illustrator 19.1.0, SVG Export Plug-In . SVG Version: 6.00 Build 0)  -->
<svg version="1.1" id="Layer_1" xmlns="http://www.w3.org/2000/svg" xmlns:xlink="http://www.w3.org/1999/xlink" x="0px" y="0px"
	 viewBox="-467 634 64 64" style="enable-background:new -467 634 64 64;" xml:space="preserve">
<style type="text/css">
	.st0{enable-background:new    ;}
	.st1{fill:#00A0B9;}
</style>
<g id="facebook_2_" class="st0">
	<g id="facebook_1_">
		<g>
			<path class="st1" d="M-430.1,656.1c0.1-3.3-0.5-8,0.5-9.6c1.9-2.9,9.5-2.2,9.5-2.2s0-6.6,0-10.3c-12,0-15.9-0.5-20,3.7
				c-3.7,3.7-3.8,11-4.1,18.4h-5.9v10.1h5.9c0,10.5,0,22,0,31.9c4.5,0,13.9,0,13.9,0v-32c0,0,5.2,0,8,0c0.6-3.4,1.2-6,2.1-9.9
				L-430.1,656.1L-430.1,656.1z"/>
		</g>
	</g>
</g>
</svg>
