<?xml version="1.0" encoding="utf-8"?>
<!-- Generator: Adobe Illustrator 19.0.1, SVG Export Plug-In . SVG Version: 6.00 Build 0)  -->
<svg version="1.1" id="bg" xmlns="http://www.w3.org/2000/svg" xmlns:xlink="http://www.w3.org/1999/xlink" x="0px" y="0px"
	 viewBox="-449 251 60 60" style="enable-background:new -449 251 60 60;" xml:space="preserve">
<style type="text/css">
	.st0{fill:#C4D10E;}
</style>
<path class="st0" d="M-405.5,287.4c0-2.6-1.2-8.6-11.7-10.2v-10.9c3.6,1,5.4,3.9,5.5,4c0.7,1.2,2.2,1.5,3.3,1c1.2-0.7,1.7-2.2,1-3.5
	c-0.1-0.3-3.2-5.5-9.7-6.6V259c0-1.4-1.1-2.5-2.5-2.5l0,0c-1.4,0-2.5,1.1-2.5,2.5v2.1c-2.9,0.6-5.8,1.8-7.6,3.7
	c-1.8,1.9-2.6,4.4-2.5,6.9c0.6,5.1,3.9,8.4,9.9,9.5v11c-3.3-1-5.7-3-6.4-3.9c-0.3-1-1.2-1.7-2.3-1.7c-1.4,0-2.5,1.1-2.5,2.5
	c0,2.5,5.2,6.9,11,8.1v4c0,1.4,1.1,2.5,2.5,2.5l0,0c1.4,0,2.5-1.1,2.5-2.5v-3.9c3.5-0.4,6.6-1.8,8.8-3.9
	C-406.4,291.9-405.5,289.7-405.5,287.4 M-427.1,271.5c-0.1-1.1,0.3-2.2,1.1-3c1-1,2.3-1.8,3.9-2.2v10.2
	C-426,275.5-426.9,273.4-427.1,271.5 M-411.8,290.3c-1.2,1.2-3.3,2.1-5.4,2.5l0.1-10.5c3.2,0.6,6.8,1.9,6.8,5.2
	C-410.4,288.6-411.1,289.6-411.8,290.3 M-390,281c0,16-13,29-29,29s-29-13-29-29s13-29,29-29S-390,265-390,281"/>
</svg>
