<?xml version="1.0" encoding="utf-8"?>
<!-- Generator: Adobe Illustrator 19.0.1, SVG Export Plug-In . SVG Version: 6.00 Build 0)  -->
<svg version="1.1" id="bg" xmlns="http://www.w3.org/2000/svg" xmlns:xlink="http://www.w3.org/1999/xlink" x="0px" y="0px"
	 viewBox="-464 266 60 60" style="enable-background:new -464 266 60 60;" xml:space="preserve">
<style type="text/css">
	.st0{fill:#C4D10E;}
</style>
<path class="st0" d="M-441.5,319.5c1.5-0.9,1.7-1.7,2.9-1.7c1.5,0,2.9-0.6,4.6-0.9c1.5-0.3,4.4-2,6.7-2c2-0.3,6.1,0,7.2,2
	c-3.8,2.6-8.7,4.1-13.6,4.1C-436.6,320.6-439.2,320.4-441.5,319.5z M-437.2,271.6c-0.6,1.2-2.3,1.4-3.2,2.3c-2,2-2.9,1.7-4.1,3.5
	s-4.6,4.4-4.6,5.5c0,1.2,1.7,2.9,2.6,2.6s3.5-0.3,4.6,0.3c1.4,0.6,11.9,0.9,8.4,9.9c-1.2,2.9-5.8,2.3-7,7c-0.3,0.6-0.9,3.5-0.9,4.6
	c0,1.5,1.2,7-0.3,7c-1.4,0-5.2-4.9-5.2-5.8s-0.9-4.1-0.9-6.7c0-2.6-4.6-2.6-4.6-6.1c0-3.2,2.6-4.9,2-6.4c-0.6-2-4.9-2-6.7-2.3
	C-453.7,278.9-446.2,272.8-437.2,271.6z M-409.1,296c0,5.8-2,11-5.2,15.1c-0.9-0.6-1.7-2.6-0.9-4.6s1.2-6.7,0.9-8.4
	s-1.2-6.1-3.8-6.1c-2.6,0-4.4-0.9-5.8-3.8c-3.2-6.4,5.8-7.5,2.6-11c-0.9-0.9-5.5,4.1-6.1-2.6c0-0.6,0.3-1.2,0.9-2
	C-416.3,275.7-409.1,285-409.1,296z M-434,267c-16,0-29,13-29,29s13,29,29,29s29-13,29-29S-417.8,267-434,267z"/>
</svg>
