<?xml version="1.0" encoding="utf-8"?>
<!-- Generator: Adobe Illustrator 19.0.1, SVG Export Plug-In . SVG Version: 6.00 Build 0)  -->
<svg version="1.1" id="Layer_1" xmlns="http://www.w3.org/2000/svg" xmlns:xlink="http://www.w3.org/1999/xlink" x="0px" y="0px"
	 viewBox="-275 367 60 60" style="enable-background:new -275 367 60 60;" xml:space="preserve">
<style type="text/css">
	.st0{fill:#C4D10E;}
	.st1{display:none;}
</style>
<g id="artwork">
	<g>
		<path class="st0" d="M-230,418.7c0,1.5-1.2,2.6-2.6,2.6h-6.2c-1.5,0-2.6-1.2-2.6-2.6v-20.5c0-1.5,1.2-2.6,2.6-2.6h6.2
			c1.5,0,2.6,1.2,2.6,2.6V418.7z M-249.5,400.3c0,0.6-0.5,1.1-1.1,1.1h-3.5c-0.6,0-1.1-0.5-1.1-1.1v-3.7c0-0.6,0.5-1.1,1.1-1.1h3.5
			c0.6,0,1.1,0.5,1.1,1.1V400.3z M-249.5,406.9c0,0.6-0.5,1.1-1.1,1.1h-3.5c-0.6,0-1.1-0.5-1.1-1.1v-3.7c0-0.6,0.5-1.1,1.1-1.1h3.5
			c0.6,0,1.1,0.5,1.1,1.1V406.9z M-256.2,400.3c0,0.6-0.5,1.1-1.1,1.1h-3.5c-0.6,0-1.1-0.5-1.1-1.1v-3.7c0-0.6,0.5-1.1,1.1-1.1h3.5
			c0.6,0,1.1,0.5,1.1,1.1V400.3z M-256.2,406.9c0,0.6-0.5,1.1-1.1,1.1h-3.5c-0.6,0-1.1-0.5-1.1-1.1v-3.7c0-0.6,0.5-1.1,1.1-1.1h3.5
			c0.6,0,1.1,0.5,1.1,1.1V406.9z M-216.4,392l-15.4-12.2v-6.5c0-0.6-0.5-1.1-1.1-1.1h-4.9c-0.6,0-1.1,0.5-1.1,1.1v0.9l-5.3-4.2
			c-0.7-0.7-1.8-0.7-2.4,0l-27.7,22c-0.3,0.3-2.2,2.8,1.9,2.8h5.9v27.5c0,0.9,0.8,1.7,1.7,1.7h38.7c0.9,0,1.7-0.8,1.7-1.7v-27.5h6.1
			C-215.1,394.8-216.1,392.3-216.4,392"/>
		<path class="st0" d="M-230,418.7c0,1.5-1.2,2.6-2.6,2.6h-6.2c-1.5,0-2.6-1.2-2.6-2.6v-20.5c0-1.5,1.2-2.6,2.6-2.6h6.2
			c1.5,0,2.6,1.2,2.6,2.6V418.7z M-249.5,400.3c0,0.6-0.5,1.1-1.1,1.1h-3.5c-0.6,0-1.1-0.5-1.1-1.1v-3.7c0-0.6,0.5-1.1,1.1-1.1h3.5
			c0.6,0,1.1,0.5,1.1,1.1V400.3z M-249.5,406.9c0,0.6-0.5,1.1-1.1,1.1h-3.5c-0.6,0-1.1-0.5-1.1-1.1v-3.7c0-0.6,0.5-1.1,1.1-1.1h3.5
			c0.6,0,1.1,0.5,1.1,1.1V406.9z M-256.2,400.3c0,0.6-0.5,1.1-1.1,1.1h-3.5c-0.6,0-1.1-0.5-1.1-1.1v-3.7c0-0.6,0.5-1.1,1.1-1.1h3.5
			c0.6,0,1.1,0.5,1.1,1.1V400.3z M-256.2,406.9c0,0.6-0.5,1.1-1.1,1.1h-3.5c-0.6,0-1.1-0.5-1.1-1.1v-3.7c0-0.6,0.5-1.1,1.1-1.1h3.5
			c0.6,0,1.1,0.5,1.1,1.1V406.9z M-216.4,392l-15.4-12.2v-6.5c0-0.6-0.5-1.1-1.1-1.1h-4.9c-0.6,0-1.1,0.5-1.1,1.1v0.9l-5.3-4.2
			c-0.7-0.7-1.8-0.7-2.4,0l-27.7,22c-0.3,0.3-2.2,2.8,1.9,2.8h5.9v27.5c0,0.9,0.8,1.7,1.7,1.7h38.7c0.9,0,1.7-0.8,1.7-1.7v-27.5h6.1
			C-215.1,394.8-216.1,392.3-216.4,392z"/>
	</g>
</g>
<g id="naming">
</g>
<g id="LOCKED" class="st1">
</g>
</svg>
