<?xml version="1.0" encoding="utf-8"?>
<!-- Generator: Adobe Illustrator 19.0.1, SVG Export Plug-In . SVG Version: 6.00 Build 0)  -->
<svg version="1.1" id="Layer_1" xmlns="http://www.w3.org/2000/svg" xmlns:xlink="http://www.w3.org/1999/xlink" x="0px" y="0px"
	 viewBox="-275 367 60 60" style="enable-background:new -275 367 60 60;" xml:space="preserve">
<style type="text/css">
	.st0{fill:#C4D10E;}
	.st1{display:none;}
	.st2{display:inline;}
	.st3{fill:#FFFFFF;}
	.st4{font-family:'ArialMT';}
	.st5{font-size:8.4441px;}
</style>
<g id="artwork">
	<path class="st0" d="M-216.3,387.2c-0.5-5.6-3.8-11-8.4-13.9c-2.4-1.5-5.5-2.3-8.7-2.3c-4.9,0-9,1.7-11.8,4.7
		c-3-2.9-6.9-4.6-11.1-4.6c-2.5,0-5,0.6-7.2,1.8c-5.6,3-9.1,8.2-9.8,14.3c-0.5,5.9,1.8,11.8,6.1,15.4c0.2,0.2,20.3,17,22.8,17
		c3,0,21.8-17.3,22-17.4C-218,398.1-215.8,392.7-216.3,387.2z M-244.4,413.2c-3.8-2.9-14.3-11-19-15.1c-2.8-2.4-4.3-6.3-3.9-10.3
		c0.3-2.4,1.5-6.9,6.7-9.8c1.3-0.7,2.8-1.1,4.4-1.1c3.5,0,6.7,1.9,8.7,5.1c-0.8,1.9-1.3,3.9-1.3,6.1c0,8.4,6.8,15.3,15.3,15.3
		c0.3,0,0.6,0,1,0C-237.6,407.8-242.2,411.5-244.4,413.2z M-221.3,389.3c0,0.4-0.4,0.8-0.8,0.8h-7.8v7.8c0,0.4-0.4,0.8-0.8,0.8h-3.8
		c-0.2,0-0.4-0.1-0.6-0.2c-0.2-0.2-0.3-0.4-0.3-0.6v-7.8h-7.8c-0.4,0-0.8-0.4-0.8-0.8v-3.8c0-0.4,0.4-0.8,0.8-0.8h7.8v-7.8
		c0-0.5,0.4-0.9,0.8-0.9h3.8c0.5,0,0.8,0.4,0.8,0.8v7.8h7.8c0.4,0.1,0.8,0.5,0.8,0.9L-221.3,389.3z"/>
</g>
<g id="naming">
</g>
<g id="LOCKED" class="st1">
	<g class="st2">
		<text transform="matrix(1 0 0 1 -265.8561 414.4043)" class="st3 st4 st5">Home Page</text>
	</g>
</g>
</svg>
