<?xml version="1.0" encoding="utf-8"?>
<!-- Generator: Adobe Illustrator 16.0.0, SVG Export Plug-In . SVG Version: 6.00 Build 0)  -->
<!DOCTYPE svg PUBLIC "-//W3C//DTD SVG 1.1//EN" "http://www.w3.org/Graphics/SVG/1.1/DTD/svg11.dtd">
<svg version="1.1" id="Layer_1" xmlns="http://www.w3.org/2000/svg" xmlns:xlink="http://www.w3.org/1999/xlink" x="0px" y="0px"
	  viewBox="0 0 60 60" enable-background="new 0 0 60 60" xml:space="preserve">
<path fill="#FFFFFF" d="M58.296,35.947l-4.045-12.059c-0.361-1.064-2.471-2.471-5.332-2.99c-0.135-0.27-0.199-0.695,0.025-1.379
	h-0.002c1.213-1.253,2.258-3.169,2.258-5.156c0-3.048-2.148-4.658-4.502-4.658c-2.359,0-4.371,1.59-4.371,4.638
	c0,1.994,0.924,3.938,2.146,5.188c0.256,0.669,0.125,1.101-0.076,1.38c-2.83,0.53-4.912,1.923-5.266,2.979l-3.123,9.313
	c-1.434-1.024-3.211-2.014-5.168-2.584c-0.372-0.135-0.776-0.251-1.224-0.338c-0.232-0.17-0.494-0.512-0.221-1.141
	c0.572-0.515,1.042-1.198,1.357-1.949c0.26-0.56,0.439-1.154,0.439-1.767c0-1.071-0.428-1.893-1.09-2.453
	c-0.007-0.007-0.014-0.016-0.02-0.022c-0.045-0.036-0.096-0.063-0.143-0.099c-0.302-0.228-0.64-0.411-1.016-0.534
	c-0.44-0.147-0.918-0.224-1.406-0.224c-1.324,0-2.5,0.548-3.115,1.59c-0.307,0.482-0.501,1.062-0.501,1.76
	c0,0.789,0.275,1.552,0.678,2.238c0.302,0.546,0.68,1.046,1.118,1.442c0.291,0.668-0.024,1.02-0.264,1.178
	c-0.152,0.029-0.299,0.079-0.45,0.114c-0.149,0.038-0.306,0.069-0.447,0.114c-2.157,0.579-4.119,1.676-5.651,2.798l-2.915-8.692
	c-0.335-1.516-2.248-2.938-4.595-3.723c-0.119-0.04-0.861-0.387-0.4-1.82h-0.002c1.212-1.27,2.256-3.215,2.256-5.232
	c0-3.095-2.151-4.729-4.501-4.729c-2.359,0-4.369,1.615-4.369,4.707c0,2.026,0.921,3.998,2.144,5.267
	c0.479,1.265-0.377,1.734-0.555,1.809c-1.719,0.628-3.21,1.623-3.969,2.719c-0.049,0.069-0.107,0.139-0.15,0.21
	c-0.085,0.168-0.143,0.338-0.143,0.513c0,0-0.067,0.784-0.087,2.115c-0.031,2.072,0.049,5.494,0.682,9.541
	c0.237,1.51,0.941,1.139,1.261,2.746c0.47,2.33,1.033,7.835,1.708,10.136c0.34,1.156,0.479,1.349,1.073,1.349
	c0,0,3.645,0.002,4.352,0h0.575l-0.002-0.009c0.474-0.036,0.711-0.275,0.912-1.337c0.798-4.218,1.72-10.602,2.426-15.801
	l1.424,4.246c0.21,0.627,0.701,1.074,1.284,1.264c0.039,0.015,0.077,0.024,0.116,0.037c0.13,0.033,0.265,0.053,0.401,0.059
	c0.607,0.06,1.229-0.123,1.669-0.609c0.863-0.944,1.941-1.767,3.169-2.434c0.206,3.238,0.787,8.282,2.403,13.636
	c0.179,0.597,0.28,0.827,0.488,0.908c0.071,0.035,0.154,0.056,0.264,0.058h3.511c0.391-0.009,0.487-0.158,0.725-0.947
	c1.617-5.354,2.197-10.398,2.404-13.636c1.209,0.655,2.268,1.467,3.123,2.393c0.16,0.167,0.346,0.31,0.559,0.419
	c0.559,0.312,1.217,0.332,1.797,0.061c0.17-0.073,0.328-0.167,0.473-0.283c0.014-0.011,0.029-0.014,0.041-0.024
	s0.016-0.027,0.027-0.038c0.264-0.23,0.48-0.523,0.605-0.876l2.422-7.169c0.141-0.412,0.588-0.636,1.002-0.494
	c0.416,0.139,0.637,0.586,0.494,1.001l-5.01,14.812h4.469c0.234,1.445,0.469,2.796,0.693,3.983c0.23,1.209,0.5,1.406,1.082,1.417
	h4.941c0.578-0.011,0.852-0.208,1.08-1.417c0.223-1.188,0.459-2.538,0.695-3.983h4.467l-5.01-14.812
	c-0.139-0.415,0.08-0.862,0.496-1.001c0.414-0.142,0.861,0.082,1,0.494l2.424,7.169c0.385,1.082,1.561,1.661,2.652,1.292
	C58.071,38.246,58.667,37.053,58.296,35.947z"/>
</svg>
