<svg id="Layer_1" data-name="Layer 1" xmlns="http://www.w3.org/2000/svg" width="543.83" height="256.69" viewBox="0 0 543.83 256.69"><defs><style>.cls-1{fill:#231f20;}</style></defs><title>payID_black</title><g id="_Group_" data-name=" Group "><path id="_Compound_Path_" data-name=" Compound Path " class="cls-1" d="M0,70.22H40.54a88.55,88.55,0,0,1,19.3,1.93,40.3,40.3,0,0,1,14.74,6.32A29.43,29.43,0,0,1,84.06,89.7a37.4,37.4,0,0,1,3.33,16.5q0,10.36-3.86,17.37a31.32,31.32,0,0,1-10.44,11.32,45.73,45.73,0,0,1-15.36,6.21,86.29,86.29,0,0,1-18.55,2h-17v51.42H0Zm37.56,54.23a65.13,65.13,0,0,0,10.35-.79,28.64,28.64,0,0,0,8.77-2.81,16,16,0,0,0,6.14-5.53,16.5,16.5,0,0,0,2.28-9.13A14.7,14.7,0,0,0,56.76,92a26,26,0,0,0-8.6-2.54,78.76,78.76,0,0,0-9.91-.61H22.11v35.62Z"/><path id="_Compound_Path_2" data-name=" Compound Path 2" class="cls-1" d="M148.46,183.77h-.53A23.5,23.5,0,0,1,137.75,193a34.55,34.55,0,0,1-16,3.6,45.78,45.78,0,0,1-10.57-1.32A31.58,31.58,0,0,1,101,190.87a25.45,25.45,0,0,1-7.72-8.07,23.23,23.23,0,0,1-3.1-12.37q0-9.48,5.35-15.09a34.61,34.61,0,0,1,13.78-8.6,77.73,77.73,0,0,1,18.69-4q10.27-1,20.09-1v-2.11q0-7.9-5.7-11.67a24.1,24.1,0,0,0-13.6-3.77A30.5,30.5,0,0,0,116,127.1a34.48,34.48,0,0,0-10.18,6.84L94.94,121.1a47.52,47.52,0,0,1,16.58-10,56.54,56.54,0,0,1,19-3.33q11.23,0,18.51,3.16a30.16,30.16,0,0,1,11.49,8.25,29.54,29.54,0,0,1,5.88,11.41,49.41,49.41,0,0,1,1.67,12.64v51.24H148.46ZM148.11,156h-4.74q-5.09,0-10.7.44a46.59,46.59,0,0,0-10.35,1.93,22.15,22.15,0,0,0-7.9,4.21,9.33,9.33,0,0,0-3.16,7.46,9,9,0,0,0,1.32,5,10.08,10.08,0,0,0,3.42,3.25,15.3,15.3,0,0,0,4.74,1.75,26.82,26.82,0,0,0,5.26.53q10.88,0,16.5-5.79T148.12,159Z"/><path id="_Compound_Path_3" data-name=" Compound Path 3" class="cls-1" d="M174.38,110.24h23.34l23.52,61.25h.35l20.88-61.25h21.94L224.57,212.55a73.34,73.34,0,0,1-4.91,10.27,28.57,28.57,0,0,1-6.32,7.55,25.32,25.32,0,0,1-8.69,4.65,40.19,40.19,0,0,1-12,1.58q-2.63,0-5.35-.26a38,38,0,0,1-5.53-1l1.73-18.24a22.24,22.24,0,0,0,4.12,1,29.28,29.28,0,0,0,3.77.26,17.35,17.35,0,0,0,5.62-.79,9.53,9.53,0,0,0,3.87-2.47,17.06,17.06,0,0,0,2.81-4.12q1.23-2.46,2.63-5.79l4.21-10.7Z"/></g><path id="_Compound_Path_4" data-name=" Compound Path 4" class="cls-1" d="M485.83,0H345.18a58,58,0,0,0-58,58V198.69a58,58,0,0,0,58,58H485.83a58,58,0,0,0,58-58h0V58.05A58,58,0,0,0,485.88,0ZM396,62.47l7.3-.89a109.27,109.27,0,0,1,32.32,1.78c23.53,4.94,40.2,17.59,48.2,36.58l-15.29,6.44c-10.9-25.87-41.76-28.8-55.93-28.69v77H396ZM343.58,73A12.4,12.4,0,1,1,356,85.39h0A12.4,12.4,0,0,1,343.57,73h0Zm144.27,70.65a65.14,65.14,0,0,1-4,15.25c-11.24,26.4-37.45,39.79-77.89,39.79H347.1V107.1h16.6v75H406c33.16,0,54.23-10,62.62-29.7a43.48,43.48,0,0,0,2.45-8.77H457.26l23.68-29.73,23.73,29.78Z"/></svg>