<?xml version="1.0" encoding="utf-8"?>
<!-- Generator: Adobe Illustrator 16.0.0, SVG Export Plug-In . SVG Version: 6.00 Build 0)  -->
<!DOCTYPE svg PUBLIC "-//W3C//DTD SVG 1.1//EN" "http://www.w3.org/Graphics/SVG/1.1/DTD/svg11.dtd">
<svg version="1.1" id="Layer_1" xmlns="http://www.w3.org/2000/svg" xmlns:xlink="http://www.w3.org/1999/xlink" x="0px" y="0px"
	  viewBox="0 0 60 60" enable-background="new 0 0 60 60" xml:space="preserve">
<g>
	<g>
		<path fill="#FFFFFF" d="M29.606,27.556l0.048-3.097c1.02,0.306,1.513,1.119,1.541,1.171c0.19,0.338,0.619,0.457,0.957,0.271
			c0.34-0.191,0.461-0.618,0.271-0.962c-0.035-0.069-0.894-1.561-2.746-1.924l0.011-0.607c0.004-0.388-0.304-0.711-0.693-0.715
			c-0.004,0-0.004,0-0.004,0c-0.387-0.004-0.708,0.304-0.717,0.693l-0.006,0.601c-0.836,0.13-1.636,0.508-2.167,1.059
			c-0.532,0.55-0.779,1.229-0.715,1.969c0.125,1.473,1.063,2.393,2.784,2.755l-0.051,3.129c-0.942-0.268-1.61-0.885-1.779-1.115
			c-0.09-0.278-0.354-0.481-0.663-0.485c-0.391-0.004-0.708,0.311-0.712,0.7c-0.008,0.72,1.456,1.983,3.131,2.334l-0.021,1.136
			c-0.004,0.392,0.308,0.712,0.695,0.717h0.002c0.389,0.004,0.706-0.307,0.714-0.695l0.019-1.086c0.968-0.1,1.894-0.49,2.533-1.087
			c0.556-0.523,0.852-1.151,0.858-1.82C32.904,29.754,32.583,28.05,29.606,27.556z M28.196,27.326
			c-1.13-0.291-1.354-0.852-1.405-1.432c-0.027-0.331,0.08-0.613,0.327-0.87c0.269-0.276,0.68-0.488,1.125-0.598L28.196,27.326z
			 M31.071,31.284c-0.375,0.357-0.942,0.601-1.545,0.695l0.051-2.997c0.902,0.181,1.92,0.583,1.911,1.498
			C31.485,30.826,31.26,31.109,31.071,31.284z"/>
		<path fill="#FFFFFF" d="M51.668,16.672l-44.945-0.48c-1.524-0.016-2.78,1.271-2.797,2.872l-0.215,20.1
			c-0.017,1.602,1.21,2.912,2.735,2.929l44.945,0.48c1.525,0.016,2.779-1.269,2.797-2.869l0.215-20.1
			C54.42,18.002,53.192,16.688,51.668,16.672z M28.977,36.888c-4.557-0.049-8.206-3.777-8.158-8.334
			c0.049-4.552,3.777-8.204,8.334-8.155c4.554,0.049,8.207,3.779,8.158,8.331C37.262,33.286,33.531,36.937,28.977,36.888z"/>
	</g>
</g>
<g>
	<path fill="#FFFFFF" d="M8.173,42.11L5.049,24.062c-0.083-0.481,0.192-0.948,0.601-1.02l37.34-6.463l-11.046-0.118l-26.636,4.61
		c-0.552,0.096-1.034,0.359-1.412,0.731l-0.074,6.903l2.311,13.35c0.104,0.014,0.206,0.035,0.313,0.036L8.173,42.11z"/>
	<path fill="#FFFFFF" d="M53.042,17.088c-0.405-0.253-0.87-0.41-1.374-0.416l-0.729-0.008l3.292,19.019l0.118-11.045L53.042,17.088z
		"/>
	<path fill="#FFFFFF" d="M53.674,36.957l-30.688,5.312l11.045,0.118l19.984-3.459c0.063-0.011,0.119-0.036,0.181-0.052l0.026-2.445
		C54.129,36.698,53.936,36.912,53.674,36.957z"/>
	<path fill="#FFFFFF" d="M55.201,38.384c0.793-0.627,1.236-1.68,1.045-2.784l-0.955-5.52L55.201,38.384z"/>
	<path fill="#FFFFFF" d="M50.611,15.661l1.066,0.011c0.407,0.005,0.791,0.093,1.157,0.222l-0.017-0.1
		c-0.26-1.498-1.574-2.538-2.992-2.418c-0.076,0.007-0.152,0.017-0.229,0.03L37.387,15.52C37.387,15.52,50.447,15.472,50.611,15.661
		z"/>
	<path fill="#FFFFFF" d="M6.435,43.092c-0.042-0.001-0.083-0.013-0.125-0.015l0.195,1.131c0.259,1.498,1.574,2.535,2.991,2.415
		c0.076-0.007,0.153-0.017,0.229-0.029l18.864-3.266"/>
</g>
</svg>
