<?xml version="1.0" encoding="utf-8"?>
<!-- Generator: Adobe Illustrator 19.0.1, SVG Export Plug-In . SVG Version: 6.00 Build 0)  -->
<svg version="1.1" id="bg" xmlns="http://www.w3.org/2000/svg" xmlns:xlink="http://www.w3.org/1999/xlink" x="0px" y="0px"
	 viewBox="-449 251 60 60" style="enable-background:new -449 251 60 60;" xml:space="preserve">
<style type="text/css">
	.st0{fill:#C4D10E;}
</style>
<g>
	<path class="st0" d="M-401.9,277.4c0.3-0.3-0.9,3.6-3.8,3.5c-3.2-0.3-4.2-3.8-3.8-5.2c1-3,2.5-3,4.3-2.6c0.3,1-0.3,1.4-0.9,1.9
		c-0.6,0.4-0.6,1.4-0.1,2.2C-405.5,277.8-403.5,278.7-401.9,277.4z M-447.6,284.8c0.4,0.4,1.3,0.7,1.9,0.7c0.3,0,0.6,0,0.9-0.1
		c0.1,0.9,0.4,2,1.3,2h0.1c0.4,0,0.7-0.3,1-0.6c0.3,0.4,0.7,0.7,1.4,0.7l1.3,0.1c0,0.1,0,0.1,0,0.3c0,0.1-0.4,3.3,3,7.5
		c3.3,4,5.7,5.6,5.8,5.6c0.7,0.4,1.3,1.6,1.3,2.5v2.6c0,0.7,0.3,1.4,0.7,1.9c0.4,0.6,1.2,0.7,1.9,0.7h3.2c1.4,0,2.6-1,2.6-2.3
		c0-0.4,0.4-0.6,0.7-0.6c0.1,0,0.3,0,0.4,0c0.1,0,0.1,0,2.8,0s3.6-0.3,3.6-0.3c0.3-0.1,0.6-0.1,0.7,0c0.1,0.1,0.1,0.3,0.1,0.6v0.1
		c0,0.7,0.3,1.4,0.7,1.9c0.4,0.6,1.2,0.9,1.9,0.9h2.8c0.7,0,1.3-0.3,1.9-0.9c0.4-0.6,0.7-1.2,0.7-1.9l-0.1-1.7
		c0-0.9,0.4-1.6,0.7-1.6h0.1l4.2-4.2c3.9-4,4.1-5.5,4.1-5.9c0-0.3,0.1-0.7,0.3-0.9c0.3-0.3,0.6-0.4,0.9-0.4h1.7
		c0.7,0,1.3-0.3,1.9-0.9c0.4-0.6,0.7-1.2,0.6-1.9c0,0-0.3-2.6,0-4.5c0.1-2,0.3-4.5,0.3-4.5c0-0.7-0.1-1.3-0.6-1.9s-1.2-0.9-1.9-0.7
		l-2.3-0.1c-0.7,0-1.3-0.6-1.4-1.3v-0.3l-5.2-4.5c-0.6-0.7-1.3-2.2-1.4-3.2c-0.3-2-0.6-5.5,0.1-6.5c0.6-0.9,0.6-1.3,0.3-1.7
		c-0.1-0.3-0.4-0.7-1.3-0.7c-0.9,0-1.7,0.4-2.5,1c-0.6,0.6-2.2,2.5-3.5,4.3c-1,1.3-1.9,2.6-2.3,3.5c-0.1-0.1-0.4-0.3-0.7-0.4
		c-0.3,0.3-0.6,0.7-0.9,1c-1.7,1.9-4.2,3-6.8,3c-2.8,0-5.2-1.2-7.1-3c-0.3-0.3-0.6-0.7-0.9-1c-0.4,0.1-0.7,0.4-1.2,0.7
		c-1.2,0.7-2.2,1.7-3.3,2.7c-4.3,3.9-5.7,9.2-5.8,9.4c-0.1,0.4-0.1,0.6-0.3,0.7l-1.4-0.3c-0.7-0.1-1.2,0.1-1.4,0.4
		c-0.3-0.3-0.7-0.4-1.3-0.4c-0.6,0-1,0.6-1.4,1c-0.1,0.1-0.3,0.4-0.4,0.4c-0.4,0.1-0.6,0.4-0.7,0.6c0,0,0,0,0,0.1
		c-0.7-0.4-1.6,0-2,0.6C-448.1,283.7-448,284.3-447.6,284.8z"/>
	<path class="st0" d="M-416.7,262.8c0-0.7-0.3-2.5-3.2-2.9v-3c1,0.3,1.4,1.2,1.4,1.2c0.1,0.3,0.6,0.4,0.9,0.3c0.3-0.1,0.4-0.6,0.3-1
		c0,0-0.9-1.6-2.8-1.9v-0.6c0-0.4-0.3-0.7-0.7-0.7l0,0c-0.4,0-0.7,0.3-0.7,0.7v0.6c-0.9,0.1-1.6,0.6-2,1c-0.6,0.6-0.7,1.2-0.7,2
		c0.1,1.4,1,2.3,2.8,2.7v3c-0.9-0.3-1.6-0.9-1.7-1c-0.1-0.3-0.3-0.4-0.6-0.4c-0.4,0-0.7,0.3-0.7,0.7c0,0.7,1.4,1.9,3,2.3v1.2
		c0,0.4,0.3,0.7,0.7,0.7l0,0c0.4,0,0.7-0.3,0.7-0.7v-1c0.9-0.1,1.9-0.4,2.5-1.2C-417,264.1-416.7,263.5-416.7,262.8z M-422.8,258.3
		c0-0.3,0-0.6,0.3-0.9c0.3-0.3,0.7-0.4,1-0.6v2.9C-422.5,259.5-422.6,258.9-422.8,258.3z M-418.6,263.7c-0.3,0.3-0.9,0.6-1.4,0.7
		v-2.9c0.9,0.1,1.9,0.6,1.9,1.4C-418.1,263.2-418.3,263.5-418.6,263.7z M-412.5,261.1c0,4.5-3.6,8.1-8,8.1c-4.5,0-8-3.6-8-8.1
		c0-4.5,3.6-8.1,8-8.1S-412.5,256.6-412.5,261.1z"/>
</g>
</svg>
