<?xml version="1.0" encoding="utf-8"?>
<!-- Generator: Adobe Illustrator 19.0.1, SVG Export Plug-In . SVG Version: 6.00 Build 0)  -->
<svg version="1.1" id="bg" xmlns="http://www.w3.org/2000/svg" xmlns:xlink="http://www.w3.org/1999/xlink" x="0px" y="0px"
	 viewBox="-472 269 60 60" style="enable-background:new -472 269 60 60;" xml:space="preserve">
<style type="text/css">
	.st0{fill:#C4D10E;}
</style>
<g>
	<path class="st0" d="M-429.5,301.7h-25.3c-0.5,0-1,0.5-1,1v15c0,0.5,0.5,0.7,1,0.7h25.3c0.5,0,1-0.5,1-1v-15
		C-428.5,301.9-429,301.7-429.5,301.7z M-428.8,281.1h-26.7c-2.6,0-4.5,1.9-4.5,4.4v33.1c0,2.4,1.9,4.3,4.5,4.3h26.9
		c2.4,0,4.5-1.9,4.5-4.3v-33.1C-424.2,283-426.1,281.1-428.8,281.1z M-426.6,317.6c0,1.7-1.2,2.9-2.9,2.9h-25.3
		c-1.7,0-2.9-1.2-2.9-2.9v-15c0-1.7,1.2-2.9,2.9-2.9h25.3c1.7,0,2.9,1.2,2.9,2.9V317.6z M-449.5,273.9v5.1h2.9v-4.8h9.1v4.8h2.9
		v-5.1c1-0.2,1.7-1,1.7-1.9c0-1-1-1.9-1.9-1.9h-14.5c-1,0-1.9,1-1.9,1.9C-451.4,272.9-450.5,273.9-449.5,273.9z M-455.7,326.8
		c0,0.7,0.5,1.2,1.2,1.2h3.6c0.7,0,1.2-0.5,1.2-1.2v-1.9h-6V326.8z M-434.5,326.8c0,0.7,0.5,1.2,1.2,1.2h3.6c0.7,0,1.2-0.5,1.2-1.2
		v-1.9h-6V326.8z"/>
</g>
</svg>
